<?xml version="1.0" encoding="utf-8"?>
<!-- Generator: Adobe Illustrator 20.1.0, SVG Export Plug-In . SVG Version: 6.00 Build 0)  -->
<svg version="1.1" id="Ebene_1" xmlns="http://www.w3.org/2000/svg" xmlns:xlink="http://www.w3.org/1999/xlink" x="0px" y="0px"
	 viewBox="0 0 146 146" style="enable-background:new 0 0 146 146;" xml:space="preserve">
<g>
	<g>
		<g>
			<path style="fill:#3C5A9E;" d="M56,67.6c0.7-0.7,1.7-1.1,2.7-1.1s2,0.4,2.8,1.2c1.5,1.5,1.5,4,0,5.5c-0.7,0.7-1.7,1.1-2.7,1.1
				s-2-0.4-2.8-1.2C54.4,71.5,54.5,69.1,56,67.6 M87.9,82.7c0.4,0.3,0.8,0.5,1.2,0.6L89,89.6l-4.5-3.3L87.9,82.7z M57.3,75
				l-1.1,38.6c0.6,0.3,1.2,0.5,1.9,0.7c1,0.2,2,0.3,3.1,0.2L59.9,75c0.7-0.2,1.4-0.5,1.9-1l8.3,8.9l8.8,3.7l-9.6,7.1l2-0.6l11.4-4.8
				l0.1-0.1l5.4,2.3l0.8,0.2L88.5,114c0.2,0,0.3,0,0.5,0c0.8,0,1.6,0,2.4-0.2L91,91.2l0.5,0.1L91,91l-0.1-7.8
				c0.4-0.1,0.8-0.3,1.1-0.6l17.4,5.6v0.1c-0.4,0.1-0.7,0.3-1,0.6c-0.5,0.5-0.7,1.1-0.6,1.7l-5.5,0.5L94.9,96l-1.2,0.9l14.6-4.7
				c0.2,0.2,0.5,0.3,0.8,0.4l-0.3,19.1c0.6,0.4,1.2,0.9,1.9,1.2l-0.4-20.3c0.3-0.1,0.6-0.2,0.9-0.4l3.7,3.9l8,3.3l1.4,0.4L112,90.7
				c0-0.6-0.1-1.2-0.6-1.7c0,0-0.1-0.1-0.2-0.1l1.7,0.5l-1.7-1.3l2.1-4.2l0.1-8.7l-0.1-1.5l-3.5,13.4l-8.8-5.8l-7.9-0.7
				c0.1-0.9-0.2-1.7-0.9-2.4c-0.4-0.4-0.9-0.7-1.4-0.8l-5.6-21.1L85,58.4V71l3.4,6.8c-0.2,0.1-0.4,0.3-0.6,0.5
				c-0.6,0.6-0.9,1.3-0.9,2.2c0,0.1,0,0.1,0,0.2l-5,3.7L63.5,70.8c0.1-1.4-0.3-2.8-1.4-3.8c-0.3-0.3-0.6-0.6-1-0.8l5.3-10.8
				l0.2-19.8l-0.3-3.3l-8.8,33.4c-0.9,0.2-1.6,0.6-2.3,1.3c-1.1,1-1.5,2.4-1.4,3.8l-12.5,1L25.1,82.7l-2.7,2L55.5,74
				C56,74.4,56.6,74.8,57.3,75"/>
		</g>
		<path style="fill:#3C5A9E;" d="M73.3,0c-40.2,0-73,32.8-73,73c0,40.3,32.8,73,73,73s73-32.8,73-73S113.6,0,73.3,0z M129.9,108.3
			l-0.7-1l-0.8,0.9c-4.9,5.3-9.6,7.7-14,7.2c-6.2-0.7-10-7-10-7l-0.7-1.2l-0.9,1.1c-4.3,5-8.8,7.4-13.4,7.2
			c-7.3-0.3-12.4-7.1-12.4-7.2l-0.7-0.9l-0.8,0.8c-6.5,6.1-12.3,8.6-17.3,7.5c-6.4-1.4-9.4-8.6-9.4-8.7l-0.6-1.6l-1.1,1.4
			c-4.9,6.3-9.7,9.3-14.2,8.9c-6.8-0.6-11-8.6-11.1-8.7l-1-1.9l-0.8,2c0,0.1-1.7,3.8-5.3,6.3C6.6,101.7,2,87.9,2,73
			C2,33.7,34,1.7,73.3,1.7s71.3,32,71.3,71.3c0,14.3-4.2,27.5-11.5,38.7C131.1,110,129.9,108.3,129.9,108.3z"/>
	</g>
	<path style="fill:#FF2B06;" d="M56.7,72.3c-1.1-1.1-1.1-2.9,0-4s2.9-1.1,4,0s1.1,2.9,0,4C59.5,73.5,57.8,73.5,56.7,72.3"/>
	<path style="fill:#FFFFFF;" d="M88.2,78.7c0.5-0.5,1.1-0.7,1.7-0.7s1.2,0.2,1.7,0.7c1,0.9,1,2.5,0,3.4c-0.5,0.5-1.1,0.7-1.7,0.7
		s-1.2-0.2-1.7-0.7s-0.7-1.1-0.7-1.7C87.5,79.8,87.7,79.2,88.2,78.7"/>
</g>
<path style="fill:#FFFFFF;" d="M109.8,88.8c0.5,0,0.9,0.2,1.2,0.5c0.7,0.7,0.6,1.7,0,2.4c-0.7,0.6-1.8,0.6-2.4,0
	c-0.7-0.7-0.6-1.8,0-2.4C109,88.9,109.4,88.8,109.8,88.8"/>
<path style="fill:#FF2B06;" d="M108.9,91.4c-0.5-0.5-0.5-1.3,0-1.8s1.3-0.5,1.8,0s0.5,1.3,0,1.8S109.4,91.9,108.9,91.4"/>
<path style="fill:#FF2B06;" d="M91.1,81.7c0.7-0.7,0.7-1.8,0-2.5s-1.8-0.7-2.5,0s-0.7,1.8,0,2.5C89.3,82.4,90.4,82.4,91.1,81.7"/>
</svg>
