<?xml version="1.0" encoding="utf-8"?>
<!-- Generator: Adobe Illustrator 20.1.0, SVG Export Plug-In . SVG Version: 6.00 Build 0)  -->
<svg version="1.1" id="Ebene_1" xmlns="http://www.w3.org/2000/svg" xmlns:xlink="http://www.w3.org/1999/xlink" x="0px" y="0px"
	 viewBox="0 0 146 146" style="enable-background:new 0 0 146 146;" xml:space="preserve">
<g>
	<g>
		<g>
			<polygon style="fill:#3C5A9E;" points="26.5,70.1 26.5,92.6 51.1,92.6 51.1,87.4 70,87.4 70,92.6 72.6,92.6 72.6,70.1 			"/>
			<rect x="76.2" y="83.3" style="fill:#3C5A9E;" width="18.9" height="9.3"/>
			<path style="fill:#3C5A9E;" d="M18.9,104.4c0.2-0.5,0.7-0.8,1.2-0.8l0,0c0.6,0,1,0.3,1.3,0.7l1,1.9c0,0.1,4,7.4,10,8
				c4.1,0.4,8.4-2.4,13-8.3l1.1-1.4c0.3-0.4,0.8-0.6,1.3-0.5s0.9,0.4,1.1,0.9l0.7,1.6c0,0.1,2.8,6.6,8.4,7.9c4.5,1,9.9-1.4,16.1-7.1
				l0.8-0.8c0.3-0.2,0.6-0.4,0.9-0.4h0.1c0.4,0,0.8,0.2,1,0.6l0.7,0.9c0,0.1,4.9,6.4,11.4,6.6c4.1,0.1,8.3-2.1,12.3-6.8l0.9-1.1
				c0.3-0.3,0.6-0.5,1-0.5h0.1c0.4,0,0.8,0.3,1.1,0.7l0.7,1.2c0,0.1,3.5,5.8,9,6.3c4,0.4,8.3-1.9,12.8-6.8l0.7-0.7V94H18.8v10.6
				L18.9,104.4z"/>
			<path style="fill:#3C5A9E;" d="M87.8,74.1c0.2-0.3,0.4-0.7,0.4-0.9v-2.4h-0.5V70H88v-4.4v-0.5V65l31.6,4.2v1.5v0.7v5.2l0,0v3.8
				l1.4,3.4l1.3,8.7h-2.1l-1.2-8.2h-5.8l-1.2,8.2h-2.1l1.3-8.7l1.4-3.4V76h4v-4.6l-28-5.6V70H89v0.8h-0.3v2.4c0,0.4-0.2,0.7-0.4,1.1
				c-0.4,0.8-0.7,1.3,0,1.7c0.5,0.3,1,0.3,1.4,0c0.3-0.3,0.5-0.8,0.3-1.2c-0.1-0.1,0-0.3,0.1-0.3c0.1-0.1,0.3,0,0.3,0.1
				c0.3,0.6,0.1,1.3-0.4,1.8c-0.3,0.2-0.6,0.4-1,0.4c-0.3,0-0.6-0.1-1-0.3C86.9,75.8,87.4,74.8,87.8,74.1"/>
		</g>
		<path style="fill:#3C5A9E;" d="M73,0C32.8,0,0,32.8,0,73c0,40.3,32.8,73,73,73s73-32.8,73-73S113.3,0,73,0z M129.6,108.3l-0.7-1
			l-0.8,0.9c-4.9,5.3-9.6,7.7-14,7.2c-6.2-0.7-10-7-10-7l-0.7-1.2l-0.9,1.1c-4.3,5-8.8,7.4-13.4,7.2c-7.3-0.3-12.4-7.1-12.4-7.2
			l-0.7-0.9l-0.8,0.8c-6.5,6.1-12.3,8.6-17.3,7.5c-6.4-1.4-9.4-8.6-9.4-8.7l-0.7-1.6l-1.1,1.4c-4.9,6.3-9.7,9.3-14.2,8.9
			c-6.8-0.6-11-8.6-11.1-8.7l-1-1.9l-0.8,2c0,0.1-1.7,3.8-5.3,6.3C6.3,101.7,1.7,87.9,1.7,73c0-39.3,32-71.3,71.3-71.3
			s71.3,32,71.3,71.3c0,14.3-4.2,27.5-11.5,38.7C130.8,110,129.6,108.3,129.6,108.3z"/>
	</g>
	<path style="fill:#FFFFFF;" d="M34.8,74.1c-2.1,0-3.7,1.7-3.7,3.7s1.7,3.7,3.7,3.7s3.7-1.7,3.7-3.7C38.6,75.8,36.9,74.1,34.8,74.1z
		"/>
	<path style="fill:#FF470C;" d="M34.8,80.6c-1.6,0-2.8-1.3-2.8-2.8c0-1.6,1.3-2.8,2.8-2.8c1.6,0,2.8,1.3,2.8,2.8
		S36.4,80.6,34.8,80.6"/>
	<path style="fill:#FFFFFF;" d="M49.6,74.1c-2.1,0-3.7,1.7-3.7,3.7s1.7,3.7,3.7,3.7s3.7-1.7,3.7-3.7S51.6,74.1,49.6,74.1z"/>
	<path style="fill:#FF470C;" d="M49.6,80.6c-1.6,0-2.8-1.3-2.8-2.8c0-1.6,1.3-2.8,2.8-2.8c1.6,0,2.8,1.3,2.8,2.8
		C52.4,79.2,51.1,80.6,49.6,80.6"/>
	<path style="fill:#FFFFFF;" d="M64.3,74.1c-2.1,0-3.7,1.7-3.7,3.7s1.7,3.7,3.7,3.7c2.1,0,3.7-1.7,3.7-3.7
		C68.1,75.8,66.4,74.1,64.3,74.1z"/>
	<path style="fill:#FF470C;" d="M64.3,80.6c-1.6,0-2.8-1.3-2.8-2.8c0-1.6,1.3-2.8,2.8-2.8c1.6,0,2.8,1.3,2.8,2.8
		C67.2,79.2,65.9,80.6,64.3,80.6"/>
</g>
</svg>
