<?xml version="1.0" encoding="utf-8"?>
<!-- Generator: Adobe Illustrator 15.1.0, SVG Export Plug-In . SVG Version: 6.00 Build 0)  -->
<!DOCTYPE svg PUBLIC "-//W3C//DTD SVG 1.1//EN" "http://www.w3.org/Graphics/SVG/1.1/DTD/svg11.dtd">
<svg version="1.1" id="Ebene_1" xmlns="http://www.w3.org/2000/svg" xmlns:xlink="http://www.w3.org/1999/xlink" x="0px" y="0px"
	 width="146.021px" height="146.021px" viewBox="31.107 -6 146.021 146.021" enable-background="new 31.107 -6 146.021 146.021"
	 xml:space="preserve">
<g>
	<g>
		<path fill="#4D6DAB" d="M67.699,107.497c2.873-1.14,5.863-3.711,8.944-7.697l1.083-1.402c0.3-0.388,0.795-0.593,1.291-0.526
			c0.494,0.07,0.914,0.401,1.096,0.865l0.65,1.646c0.024,0.059,2.774,6.604,8.413,7.87c4.5,1.011,9.926-1.405,16.06-7.132
			l0.824-0.77c0.256-0.238,0.593-0.37,0.947-0.37c0.021,0,0.104,0.002,0.124,0.003c0.397,0.036,0.757,0.24,0.991,0.556l0.672,0.909
			c0.045,0.06,4.859,6.362,11.387,6.617c4.12,0.155,8.284-2.121,12.315-6.762l0.926-1.066c0.266-0.303,0.646-0.478,1.047-0.478
			c0.021,0,0.109,0.006,0.133,0.006c0.443,0.041,0.844,0.297,1.068,0.686l0.707,1.222c0.029,0.051,3.496,5.755,8.959,6.348
			c1.189,0.132,2.412,0.011,3.66-0.342l11.721-28.223H49.229C49.229,97.469,61.381,104.867,67.699,107.497"/>
		<path fill="#FFFFFF" d="M106.811,94.178c-2.402,0-4.349-1.946-4.349-4.349s1.946-4.349,4.349-4.349
			c2.401,0,4.349,1.946,4.349,4.349S109.212,94.178,106.811,94.178"/>
		<path fill="#4D6DAB" d="M106.811,94.786c-2.733,0-4.957-2.224-4.957-4.955c0-2.734,2.224-4.96,4.957-4.96s4.958,2.226,4.958,4.96
			C111.769,92.562,109.544,94.786,106.811,94.786z M106.811,86.087c-2.062,0-3.741,1.681-3.741,3.744
			c0,2.062,1.679,3.739,3.741,3.739s3.741-1.678,3.741-3.739C110.552,87.767,108.874,86.087,106.811,86.087z"/>
		<path fill="#FF470C" d="M106.811,92.657c-1.562,0-2.827-1.266-2.827-2.826c0-1.562,1.266-2.828,2.827-2.828
			c1.561,0,2.826,1.266,2.826,2.828C109.637,91.391,108.372,92.657,106.811,92.657"/>
		<path fill="#FFFFFF" d="M121.566,94.178c-2.402,0-4.349-1.946-4.349-4.349s1.946-4.349,4.349-4.349s4.348,1.946,4.348,4.349
			S123.968,94.178,121.566,94.178"/>
		<path fill="#4D6DAB" d="M121.566,94.786c-2.732,0-4.957-2.224-4.957-4.955c0-2.734,2.225-4.96,4.957-4.96
			c2.733,0,4.958,2.226,4.958,4.96C126.523,92.562,124.299,94.786,121.566,94.786z M121.566,86.087c-2.062,0-3.74,1.681-3.74,3.744
			c0,2.062,1.678,3.739,3.74,3.739s3.74-1.678,3.74-3.739C125.306,87.767,123.628,86.087,121.566,86.087z"/>
		<path fill="#FF470C" d="M121.566,92.657c-1.562,0-2.826-1.266-2.826-2.826c0-1.562,1.265-2.828,2.826-2.828
			c1.561,0,2.826,1.266,2.826,2.828C124.392,91.391,123.126,92.657,121.566,92.657"/>
		<path fill="#FFFFFF" d="M136.318,94.178c-2.402,0-4.348-1.946-4.348-4.349s1.945-4.349,4.348-4.349c2.4,0,4.35,1.946,4.35,4.349
			S138.719,94.178,136.318,94.178"/>
		<path fill="#4D6DAB" d="M136.318,94.786c-2.734,0-4.957-2.224-4.957-4.955c0-2.734,2.223-4.96,4.957-4.96s4.957,2.226,4.957,4.96
			C141.275,92.562,139.053,94.786,136.318,94.786z M136.318,86.087c-2.062,0-3.74,1.681-3.74,3.744c0,2.062,1.678,3.739,3.74,3.739
			s3.74-1.678,3.74-3.739C140.059,87.767,138.381,86.087,136.318,86.087z"/>
		<path fill="#FF470C" d="M136.318,92.657c-1.561,0-2.826-1.266-2.826-2.826c0-1.562,1.266-2.828,2.826-2.828
			c1.562,0,2.828,1.266,2.828,2.828C139.146,91.391,137.881,92.657,136.318,92.657"/>
		<polygon fill="#4D6DAB" points="70.414,57.52 65.513,57.52 65.513,45.731 61.058,45.731 61.058,30.658 60.166,30.658 
			60.166,45.731 55.71,45.731 55.71,57.52 50.809,57.52 50.809,77.886 70.414,77.886 		"/>
		<path fill="#4D6DAB" d="M117.048,59.62c-0.18-0.33-0.363-0.67-0.363-0.913v-2.413h0.51v-0.77h-0.366v-4.434V50.6v-0.145
			l-31.625,4.166v1.476v0.7v5.213h0.005v3.818l-1.419,3.354l-1.271,8.703h2.086l1.196-8.188h5.782l1.213,8.188h2.087l-1.291-8.703
			l-1.418-3.354v-4.427h-4.017v-4.604l27.981-5.57v4.297h-0.295v0.77h0.347v2.413c0,0.367,0.206,0.747,0.423,1.149
			c0.426,0.785,0.657,1.289,0.045,1.725c-0.46,0.325-0.974,0.314-1.373-0.029c-0.307-0.264-0.535-0.751-0.313-1.195
			c0.061-0.123,0.013-0.271-0.11-0.332s-0.27-0.012-0.33,0.11c-0.293,0.584-0.115,1.321,0.432,1.792
			c0.257,0.221,0.614,0.384,1.015,0.384c0.304,0,0.632-0.092,0.964-0.327C117.943,61.275,117.427,60.318,117.048,59.62"/>
		<path fill="#4D6DAB" d="M154.484,59.62c-0.18-0.33-0.363-0.67-0.363-0.913v-2.413h0.51v-0.77h-0.365v-4.434v-0.635l-31.625,4.166
			v1.476v0.7v5.213h0.006v3.818l-1.42,3.354l-1.27,8.704h2.275l1.168-8.002h5.784l1.186,8.002h1.949l-1.289-8.704l-1.418-3.354
			v-4.427h-4.016v-4.604l27.98-5.567v4.296h-0.295v0.769h0.348v2.412c0,0.368,0.205,0.749,0.422,1.149
			c0.426,0.787,0.658,1.291,0.047,1.725c-0.463,0.326-0.977,0.314-1.377-0.029c-0.305-0.264-0.535-0.751-0.311-1.195
			c0.061-0.123,0.012-0.271-0.111-0.332c-0.121-0.061-0.27-0.012-0.33,0.11c-0.293,0.584-0.115,1.321,0.432,1.792
			c0.258,0.221,0.613,0.384,1.016,0.384c0.303,0,0.631-0.092,0.965-0.327C155.379,61.275,154.863,60.318,154.484,59.62"/>
	</g>
	<path fill="#4D6DAB" d="M104.117-6c-40.258,0-73.01,32.752-73.01,73.01c0,40.259,32.752,73.011,73.01,73.011
		c40.258,0,73.012-32.752,73.012-73.011C177.129,26.753,144.375-6,104.117-6z M104.117,138.299
		c-23.712,0-44.745-11.648-57.712-29.512c2.533-1.71,4.198-3.962,5.114-5.477c1.737,2.641,5.793,7.682,11.716,8.224
		c4.964,0.448,10.005-2.366,15.002-8.391c1.324,2.46,4.524,7.168,10.093,8.426c0.92,0.206,1.856,0.31,2.815,0.31
		c4.734,0,9.944-2.527,15.533-7.541c1.754,2.021,6.623,6.86,13.27,7.129c4.904,0.188,9.661-2.145,14.155-6.955
		c1.502,2.067,5.203,6.278,10.764,6.891c4.859,0.535,9.875-1.812,14.916-6.986c0.639,0.762,1.666,1.873,3.023,2.988
		C149.934,126.047,128.438,138.299,104.117,138.299z M160.678,102.296l-0.719-1.021l-0.846,0.919
		c-4.852,5.268-9.572,7.692-14.014,7.21c-6.24-0.68-9.973-6.97-10.01-7.032l-0.707-1.222l-0.924,1.063
		c-4.328,4.984-8.827,7.415-13.418,7.241c-7.262-0.283-12.396-7.109-12.445-7.178l-0.674-0.91l-0.825,0.772
		c-6.507,6.072-12.331,8.586-17.31,7.469c-6.438-1.444-9.372-8.643-9.4-8.714l-0.65-1.646l-1.084,1.401
		c-4.874,6.309-9.658,9.299-14.229,8.882c-6.79-0.614-11.022-8.647-11.063-8.728l-0.98-1.89l-0.84,1.954
		c-0.021,0.051-1.688,3.82-5.299,6.259C37.422,95.688,32.829,81.88,32.829,67.01c0-39.309,31.979-71.288,71.288-71.288
		c39.309,0,71.29,31.979,71.29,71.288c0,14.26-4.225,27.543-11.463,38.696C161.9,103.996,160.703,102.33,160.678,102.296z"/>
</g>
</svg>
